<svg width="247" height="148" viewBox="0 0 247 148" fill="none" xmlns="http://www.w3.org/2000/svg">
<path id="Primary Text" d="M10.32 4.92V33H3.48V4.92H10.32ZM16.8369 4.92H23.8369L19.3569 15.64H14.7569L16.8369 4.92ZM56.335 10.44C59.1083 10.44 61.3083 11.28 62.935 12.96C64.5883 14.64 65.415 16.9733 65.415 19.96V33H58.615V20.88C58.615 19.44 58.2283 18.3333 57.455 17.56C56.7083 16.76 55.6683 16.36 54.335 16.36C53.0017 16.36 51.9483 16.76 51.175 17.56C50.4283 18.3333 50.055 19.44 50.055 20.88V33H43.255V20.88C43.255 19.44 42.8683 18.3333 42.095 17.56C41.3483 16.76 40.3083 16.36 38.975 16.36C37.6417 16.36 36.5883 16.76 35.815 17.56C35.0683 18.3333 34.695 19.44 34.695 20.88V33H27.855V10.68H34.695V13.48C35.3883 12.5467 36.295 11.8133 37.415 11.28C38.535 10.72 39.8017 10.44 41.215 10.44C42.895 10.44 44.3883 10.8 45.695 11.52C47.0283 12.24 48.0683 13.2667 48.815 14.6C49.5883 13.3733 50.6417 12.3733 51.975 11.6C53.3083 10.8267 54.7617 10.44 56.335 10.44ZM110.475 4.92V33H103.635V16.16L97.3553 33H91.8353L85.5153 16.12V33H78.6753V4.92H86.7553L94.6353 24.36L102.435 4.92H110.475ZM114.034 21.8C114.034 19.5067 114.461 17.4933 115.314 15.76C116.194 14.0267 117.381 12.6933 118.874 11.76C120.367 10.8267 122.034 10.36 123.874 10.36C125.447 10.36 126.821 10.68 127.994 11.32C129.194 11.96 130.114 12.8 130.754 13.84V10.68H137.594V33H130.754V29.84C130.087 30.88 129.154 31.72 127.954 32.36C126.781 33 125.407 33.32 123.834 33.32C122.021 33.32 120.367 32.8533 118.874 31.92C117.381 30.96 116.194 29.6133 115.314 27.88C114.461 26.12 114.034 24.0933 114.034 21.8ZM130.754 21.84C130.754 20.1333 130.274 18.7867 129.314 17.8C128.381 16.8133 127.234 16.32 125.874 16.32C124.514 16.32 123.354 16.8133 122.394 17.8C121.461 18.76 120.994 20.0933 120.994 21.8C120.994 23.5067 121.461 24.8667 122.394 25.88C123.354 26.8667 124.514 27.36 125.874 27.36C127.234 27.36 128.381 26.8667 129.314 25.88C130.274 24.8933 130.754 23.5467 130.754 21.84ZM149.383 14.4C150.183 13.1733 151.183 12.2133 152.383 11.52C153.583 10.8 154.916 10.44 156.383 10.44V17.68H154.503C152.796 17.68 151.516 18.0533 150.663 18.8C149.809 19.52 149.383 20.8 149.383 22.64V33H142.543V10.68H149.383V14.4ZM163.092 8.36C161.892 8.36 160.905 8.01333 160.132 7.32C159.385 6.6 159.012 5.72 159.012 4.68C159.012 3.61333 159.385 2.73333 160.132 2.04C160.905 1.32 161.892 0.959998 163.092 0.959998C164.265 0.959998 165.225 1.32 165.972 2.04C166.745 2.73333 167.132 3.61333 167.132 4.68C167.132 5.72 166.745 6.6 165.972 7.32C165.225 8.01333 164.265 8.36 163.092 8.36ZM166.492 10.68V33H159.652V10.68H166.492ZM170.089 21.8C170.089 19.5067 170.515 17.4933 171.369 15.76C172.249 14.0267 173.435 12.6933 174.929 11.76C176.422 10.8267 178.089 10.36 179.929 10.36C181.502 10.36 182.875 10.68 184.049 11.32C185.249 11.96 186.169 12.8 186.809 13.84V10.68H193.649V33H186.809V29.84C186.142 30.88 185.209 31.72 184.009 32.36C182.835 33 181.462 33.32 179.889 33.32C178.075 33.32 176.422 32.8533 174.929 31.92C173.435 30.96 172.249 29.6133 171.369 27.88C170.515 26.12 170.089 24.0933 170.089 21.8ZM186.809 21.84C186.809 20.1333 186.329 18.7867 185.369 17.8C184.435 16.8133 183.289 16.32 181.929 16.32C180.569 16.32 179.409 16.8133 178.449 17.8C177.515 18.76 177.049 20.0933 177.049 21.8C177.049 23.5067 177.515 24.8667 178.449 25.88C179.409 26.8667 180.569 27.36 181.929 27.36C183.289 27.36 184.435 26.8667 185.369 25.88C186.329 24.8933 186.809 23.5467 186.809 21.84ZM212.197 10.44C214.811 10.44 216.891 11.2933 218.437 13C220.011 14.68 220.797 17 220.797 19.96V33H213.997V20.88C213.997 19.3867 213.611 18.2267 212.837 17.4C212.064 16.5733 211.024 16.16 209.717 16.16C208.411 16.16 207.371 16.5733 206.597 17.4C205.824 18.2267 205.437 19.3867 205.437 20.88V33H198.597V10.68H205.437V13.64C206.131 12.6533 207.064 11.88 208.237 11.32C209.411 10.7333 210.731 10.44 212.197 10.44ZM246.59 21.48C246.59 22.12 246.55 22.7867 246.47 23.48H230.99C231.097 24.8667 231.537 25.9333 232.31 26.68C233.11 27.4 234.084 27.76 235.23 27.76C236.937 27.76 238.124 27.04 238.79 25.6H246.07C245.697 27.0667 245.017 28.3867 244.03 29.56C243.07 30.7333 241.857 31.6533 240.39 32.32C238.924 32.9867 237.284 33.32 235.47 33.32C233.284 33.32 231.337 32.8533 229.63 31.92C227.924 30.9867 226.59 29.6533 225.63 27.92C224.67 26.1867 224.19 24.16 224.19 21.84C224.19 19.52 224.657 17.4933 225.59 15.76C226.55 14.0267 227.884 12.6933 229.59 11.76C231.297 10.8267 233.257 10.36 235.47 10.36C237.63 10.36 239.55 10.8133 241.23 11.72C242.91 12.6267 244.217 13.92 245.15 15.6C246.11 17.28 246.59 19.24 246.59 21.48ZM239.59 19.68C239.59 18.5067 239.19 17.5733 238.39 16.88C237.59 16.1867 236.59 15.84 235.39 15.84C234.244 15.84 233.27 16.1733 232.47 16.84C231.697 17.5067 231.217 18.4533 231.03 19.68H239.59ZM22.12 65.8C21.6133 64.8667 20.88 64.16 19.92 63.68C18.9867 63.1733 17.88 62.92 16.6 62.92C14.3867 62.92 12.6133 63.6533 11.28 65.12C9.94667 66.56 9.28 68.4933 9.28 70.92C9.28 73.5067 9.97333 75.5333 11.36 77C12.7733 78.44 14.7067 79.16 17.16 79.16C18.84 79.16 20.2533 78.7333 21.4 77.88C22.5733 77.0267 23.4267 75.8 23.96 74.2H15.28V69.16H30.16V75.52C29.6533 77.2267 28.7867 78.8133 27.56 80.28C26.36 81.7467 24.8267 82.9333 22.96 83.84C21.0933 84.7467 18.9867 85.2 16.64 85.2C13.8667 85.2 11.3867 84.6 9.2 83.4C7.04 82.1733 5.34667 80.48 4.12 78.32C2.92 76.16 2.32 73.6933 2.32 70.92C2.32 68.1467 2.92 65.68 4.12 63.52C5.34667 61.3333 7.04 59.64 9.2 58.44C11.36 57.2133 13.8267 56.6 16.6 56.6C19.96 56.6 22.7867 57.4133 25.08 59.04C27.4 60.6667 28.9333 62.92 29.68 65.8H22.12ZM40.7888 55.4V85H33.9488V55.4H40.7888ZM44.3856 73.8C44.3856 71.5067 44.8123 69.4933 45.6656 67.76C46.5456 66.0267 47.7323 64.6933 49.2256 63.76C50.719 62.8267 52.3856 62.36 54.2256 62.36C55.799 62.36 57.1723 62.68 58.3456 63.32C59.5456 63.96 60.4656 64.8 61.1056 65.84V62.68H67.9456V85H61.1056V81.84C60.439 82.88 59.5056 83.72 58.3056 84.36C57.1323 85 55.759 85.32 54.1856 85.32C52.3723 85.32 50.719 84.8533 49.2256 83.92C47.7323 82.96 46.5456 81.6133 45.6656 79.88C44.8123 78.12 44.3856 76.0933 44.3856 73.8ZM61.1056 73.84C61.1056 72.1333 60.6256 70.7867 59.6656 69.8C58.7323 68.8133 57.5856 68.32 56.2256 68.32C54.8656 68.32 53.7056 68.8133 52.7456 69.8C51.8123 70.76 51.3456 72.0933 51.3456 73.8C51.3456 75.5067 51.8123 76.8667 52.7456 77.88C53.7056 78.8667 54.8656 79.36 56.2256 79.36C57.5856 79.36 58.7323 78.8667 59.6656 77.88C60.6256 76.8933 61.1056 75.5467 61.1056 73.84ZM71.5341 73.8C71.5341 71.5067 71.9607 69.4933 72.8141 67.76C73.6941 66.0267 74.8807 64.6933 76.3741 63.76C77.8674 62.8267 79.5341 62.36 81.3741 62.36C82.8407 62.36 84.1741 62.6667 85.3741 63.28C86.6007 63.8933 87.5607 64.72 88.2541 65.76V55.4H95.0941V85H88.2541V81.8C87.6141 82.8667 86.6941 83.72 85.4941 84.36C84.3207 85 82.9474 85.32 81.3741 85.32C79.5341 85.32 77.8674 84.8533 76.3741 83.92C74.8807 82.96 73.6941 81.6133 72.8141 79.88C71.9607 78.12 71.5341 76.0933 71.5341 73.8ZM88.2541 73.84C88.2541 72.1333 87.7741 70.7867 86.8141 69.8C85.8807 68.8133 84.7341 68.32 83.3741 68.32C82.0141 68.32 80.8541 68.8133 79.8941 69.8C78.9607 70.76 78.4941 72.0933 78.4941 73.8C78.4941 75.5067 78.9607 76.8667 79.8941 77.88C80.8541 78.8667 82.0141 79.36 83.3741 79.36C84.7341 79.36 85.8807 78.8667 86.8141 77.88C87.7741 76.8933 88.2541 75.5467 88.2541 73.84ZM120.959 79.2V85H117.479C114.999 85 113.066 84.4 111.679 83.2C110.292 81.9733 109.599 79.9867 109.599 77.24V68.36H106.879V62.68H109.599V57.24H116.439V62.68H120.919V68.36H116.439V77.32C116.439 77.9867 116.599 78.4667 116.919 78.76C117.239 79.0533 117.772 79.2 118.519 79.2H120.959ZM134.929 85.32C132.742 85.32 130.769 84.8533 129.009 83.92C127.276 82.9867 125.902 81.6533 124.889 79.92C123.902 78.1867 123.409 76.16 123.409 73.84C123.409 71.5467 123.916 69.5333 124.929 67.8C125.942 66.04 127.329 64.6933 129.089 63.76C130.849 62.8267 132.822 62.36 135.009 62.36C137.196 62.36 139.169 62.8267 140.929 63.76C142.689 64.6933 144.076 66.04 145.089 67.8C146.102 69.5333 146.609 71.5467 146.609 73.84C146.609 76.1333 146.089 78.16 145.049 79.92C144.036 81.6533 142.636 82.9867 140.849 83.92C139.089 84.8533 137.116 85.32 134.929 85.32ZM134.929 79.4C136.236 79.4 137.342 78.92 138.249 77.96C139.182 77 139.649 75.6267 139.649 73.84C139.649 72.0533 139.196 70.68 138.289 69.72C137.409 68.76 136.316 68.28 135.009 68.28C133.676 68.28 132.569 68.76 131.689 69.72C130.809 70.6533 130.369 72.0267 130.369 73.84C130.369 75.6267 130.796 77 131.649 77.96C132.529 78.92 133.622 79.4 134.929 79.4ZM167.794 85.32C165.848 85.32 164.114 84.9867 162.594 84.32C161.074 83.6533 159.874 82.7467 158.994 81.6C158.114 80.4267 157.621 79.12 157.514 77.68H164.274C164.354 78.4533 164.714 79.08 165.354 79.56C165.994 80.04 166.781 80.28 167.714 80.28C168.568 80.28 169.221 80.12 169.674 79.8C170.154 79.4533 170.394 79.0133 170.394 78.48C170.394 77.84 170.061 77.3733 169.394 77.08C168.728 76.76 167.648 76.4133 166.154 76.04C164.554 75.6667 163.221 75.28 162.154 74.88C161.088 74.4533 160.168 73.8 159.394 72.92C158.621 72.0133 158.234 70.8 158.234 69.28C158.234 68 158.581 66.84 159.274 65.8C159.994 64.7333 161.034 63.8933 162.394 63.28C163.781 62.6667 165.421 62.36 167.314 62.36C170.114 62.36 172.314 63.0533 173.914 64.44C175.541 65.8267 176.474 67.6667 176.714 69.96H170.394C170.288 69.1867 169.941 68.5733 169.354 68.12C168.794 67.6667 168.048 67.44 167.114 67.44C166.314 67.44 165.701 67.6 165.274 67.92C164.848 68.2133 164.634 68.6267 164.634 69.16C164.634 69.8 164.968 70.28 165.634 70.6C166.328 70.92 167.394 71.24 168.834 71.56C170.488 71.9867 171.834 72.4133 172.874 72.84C173.914 73.24 174.821 73.9067 175.594 74.84C176.394 75.7467 176.808 76.9733 176.834 78.52C176.834 79.8267 176.461 81 175.714 82.04C174.994 83.0533 173.941 83.8533 172.554 84.44C171.194 85.0267 169.608 85.32 167.794 85.32ZM202.059 73.48C202.059 74.12 202.019 74.7867 201.939 75.48H186.459C186.566 76.8667 187.006 77.9333 187.779 78.68C188.579 79.4 189.552 79.76 190.699 79.76C192.406 79.76 193.592 79.04 194.259 77.6H201.539C201.166 79.0667 200.486 80.3867 199.499 81.56C198.539 82.7333 197.326 83.6533 195.859 84.32C194.392 84.9867 192.752 85.32 190.939 85.32C188.752 85.32 186.806 84.8533 185.099 83.92C183.392 82.9867 182.059 81.6533 181.099 79.92C180.139 78.1867 179.659 76.16 179.659 73.84C179.659 71.52 180.126 69.4933 181.059 67.76C182.019 66.0267 183.352 64.6933 185.059 63.76C186.766 62.8267 188.726 62.36 190.939 62.36C193.099 62.36 195.019 62.8133 196.699 63.72C198.379 64.6267 199.686 65.92 200.619 67.6C201.579 69.28 202.059 71.24 202.059 73.48ZM195.059 71.68C195.059 70.5067 194.659 69.5733 193.859 68.88C193.059 68.1867 192.059 67.84 190.859 67.84C189.712 67.84 188.739 68.1733 187.939 68.84C187.166 69.5067 186.686 70.4533 186.499 71.68H195.059ZM226.707 73.48C226.707 74.12 226.668 74.7867 226.588 75.48H211.108C211.214 76.8667 211.654 77.9333 212.428 78.68C213.228 79.4 214.201 79.76 215.348 79.76C217.054 79.76 218.241 79.04 218.908 77.6H226.188C225.814 79.0667 225.134 80.3867 224.148 81.56C223.188 82.7333 221.974 83.6533 220.508 84.32C219.041 84.9867 217.401 85.32 215.588 85.32C213.401 85.32 211.454 84.8533 209.748 83.92C208.041 82.9867 206.708 81.6533 205.748 79.92C204.788 78.1867 204.308 76.16 204.308 73.84C204.308 71.52 204.774 69.4933 205.708 67.76C206.668 66.0267 208.001 64.6933 209.708 63.76C211.414 62.8267 213.374 62.36 215.588 62.36C217.748 62.36 219.668 62.8133 221.348 63.72C223.028 64.6267 224.334 65.92 225.268 67.6C226.228 69.28 226.707 71.24 226.707 73.48ZM219.708 71.68C219.708 70.5067 219.308 69.5733 218.508 68.88C217.708 68.1867 216.708 67.84 215.508 67.84C214.361 67.84 213.388 68.1733 212.588 68.84C211.814 69.5067 211.334 70.4533 211.148 71.68H219.708ZM26.28 114.68L12.28 147.6H4.92L10.04 136.24L0.96 114.68H8.6L13.76 128.64L18.88 114.68H26.28ZM38.9134 137.32C36.7268 137.32 34.7534 136.853 32.9934 135.92C31.2601 134.987 29.8868 133.653 28.8734 131.92C27.8868 130.187 27.3934 128.16 27.3934 125.84C27.3934 123.547 27.9001 121.533 28.9134 119.8C29.9268 118.04 31.3134 116.693 33.0734 115.76C34.8334 114.827 36.8068 114.36 38.9934 114.36C41.1801 114.36 43.1534 114.827 44.9134 115.76C46.6734 116.693 48.0601 118.04 49.0734 119.8C50.0868 121.533 50.5934 123.547 50.5934 125.84C50.5934 128.133 50.0734 130.16 49.0334 131.92C48.0201 133.653 46.6201 134.987 44.8334 135.92C43.0734 136.853 41.1001 137.32 38.9134 137.32ZM38.9134 131.4C40.2201 131.4 41.3268 130.92 42.2334 129.96C43.1668 129 43.6334 127.627 43.6334 125.84C43.6334 124.053 43.1801 122.68 42.2734 121.72C41.3934 120.76 40.3001 120.28 38.9934 120.28C37.6601 120.28 36.5534 120.76 35.6734 121.72C34.7934 122.653 34.3534 124.027 34.3534 125.84C34.3534 127.627 34.7801 129 35.6334 129.96C36.5134 130.92 37.6068 131.4 38.9134 131.4ZM76.2622 114.68V137H69.4222V133.96C68.7289 134.947 67.7822 135.747 66.5822 136.36C65.4089 136.947 64.1022 137.24 62.6622 137.24C60.9555 137.24 59.4489 136.867 58.1422 136.12C56.8355 135.347 55.8222 134.24 55.1022 132.8C54.3822 131.36 54.0222 129.667 54.0222 127.72V114.68H60.8222V126.8C60.8222 128.293 61.2089 129.453 61.9822 130.28C62.7555 131.107 63.7955 131.52 65.1022 131.52C66.4355 131.52 67.4889 131.107 68.2622 130.28C69.0355 129.453 69.4222 128.293 69.4222 126.8V114.68H76.2622ZM90.1753 107.92L89.3753 127.08H83.5753L82.7753 107.92H90.1753ZM86.5753 137.32C85.3753 137.32 84.3886 136.973 83.6153 136.28C82.8686 135.56 82.4953 134.68 82.4953 133.64C82.4953 132.573 82.8686 131.68 83.6153 130.96C84.3886 130.24 85.3753 129.88 86.5753 129.88C87.7486 129.88 88.7086 130.24 89.4553 130.96C90.2286 131.68 90.6153 132.573 90.6153 133.64C90.6153 134.68 90.2286 135.56 89.4553 136.28C88.7086 136.973 87.7486 137.32 86.5753 137.32Z" fill="#172B4D"/>
</svg>
